# xmcd
#
# Track frame offsets:
#	150
#	40899
#	74172
#	125274
#	156312
#	203469
#	232674
#
# Disc length: 3531 seconds
# Revision: 0
# Processed by: cddbd v1.5.2PL0 Copyright (c) Steve Scherf et al.
# Submitted via: dBpowerAMP V12.0
#
DISCID=570dc907
DTITLE=Dżem - Symfonicznie
DYEAR=2012
DGENRE=Blues/Rock
TTITLE0=Skazany Na Bluesa
TTITLE1=Harley Mój
TTITLE2=Naiwne Pytania
TTITLE3=Autsajder
TTITLE4=Whisky
TTITLE5=Czerwony Jak Cegła
TTITLE6=Sen o Victorii
EXTD=
EXTT0=
EXTT1=
EXTT2=
EXTT3=
EXTT4=
EXTT5=
EXTT6=
PLAYORDER=
